# xmcd
#
# Track frame offsets:
#	150
#	19806
#	34330
#	44785
#	59225
#	73768
#	85325
#	96920
#	108534
#	118103
#	130123
#	140270
#	148645
#	158513
#	170190
#	182946
#	195297
#	204301
#	214914
#	226814
#	238727
#	252131
#	268479
#	275851
#
# Disc length: 3814 seconds
#
# Revision: 0
# Processed by: cddbd v1.5.2PL0 Copyright (c) Steve Scherf et al.
# Submitted via: audiograbber 1.83.01
#
DISCID=7d0ee418
DTITLE=Various Artist - Rare Funk vol 0
DYEAR=2002
DGENRE=Funk
TTITLE0=Big Jay Bush and house Rockers - Soul Meeting
TTITLE1=King Leo and Champions - Chicken Scratch
TTITLE2=Olapedo Ogomodede - It's Your Thing
TTITLE3=Williams Bros. - Rap On
TTITLE4=Lee Taylor and Soul Twisters Ltd. - 151 Proof
TTITLE5=Rock Robbins - Gppd Lovin'
TTITLE6=Soul Merchants - Ain't Gonna Go For That
TTITLE7=Orphans - Soul Shake
TTITLE8=Explosions - Stepping Hot
TTITLE9=Soul Brothers - Mis Delores Funk
TTITLE10=Jolly George and Combo - Idella
TTITLE11=Counts - Chitlins Etc.
TTITLE12=Hustlers - Goodbye
TTITLE13=Juan Brady - Funky Funky 'L' Street
TTITLE14=T.J. Caldwell - Get The Feeling
TTITLE15=Dennis on Drums - Black Beauty #2
TTITLE16=Sunday Social - Soul Break
TTITLE17=Sound of Time - Kiil Tool
TTITLE18=Cherry Fogg - Nervous Conclusion
TTITLE19=Allen Matthews - Allens Party
TTITLE20=Satisfiers - Big Bari
TTITLE21=Rufus Beachham - Good Woman
TTITLE22=Ron Anthony - Just Funky
TTITLE23=Soul Relation - Mongo Strut
EXTD=A collection of James brown influenced superheavy funk cuts
EXTT0=
EXTT1=
EXTT2=
EXTT3=
EXTT4=
EXTT5=
EXTT6=
EXTT7=
EXTT8=
EXTT9=
EXTT10=
EXTT11=
EXTT12=
EXTT13=
EXTT14=
EXTT15=
EXTT16=
EXTT17=
EXTT18=
EXTT19=
EXTT20=
EXTT21=
EXTT22=
EXTT23=
PLAYORDER=
